# xmcd
#
# Track frame offsets: 
#        150
#        23866
#        37922
#        58874
#        74380
#        87474
#        110138
#        130673
#        148352
#        179944
#        200589
#        223268
#
# Disc length: 3235 seconds
#
# Revision: 0
# Processed by: cddbd v1.5.2PL0 Copyright (c) Steve Scherf et al.
# Submitted via: ExactAudioCopy v0.95b4
#
DISCID=c80ca10c
DTITLE=Кирилл Комаров и друзья - змея
DYEAR=2011
DGENRE=Blues
TTITLE0=То, что я есть
TTITLE1=Я не хочу выбирать
TTITLE2=Двигайся медленно
TTITLE3=Ты - я
TTITLE4=Дадада
TTITLE5=Ты никогда не узнаешь
TTITLE6=Колдунья
TTITLE7=Кораблик
TTITLE8=Мой учитель
TTITLE9=Дом там, где ты
TTITLE10=Никто не умирает в раю
TTITLE11=Спасибо за чай
EXTD=
EXTT0=
EXTT1=
EXTT2=
EXTT3=
EXTT4=
EXTT5=
EXTT6=
EXTT7=
EXTT8=
EXTT9=
EXTT10=
EXTT11=
PLAYORDER=
